<?xml version="1.0" standalone="no"?>
<!DOCTYPE svg PUBLIC "-//W3C//DTD SVG 1.1//EN" "http://www.w3.org/Graphics/SVG/1.1/DTD/svg11.dtd" >
<svg xmlns="http://www.w3.org/2000/svg">
<metadata></metadata>
<defs>
<font id="galscbold_italic" horiz-adv-x="1177" >
<font-face units-per-em="2048" ascent="1552" descent="-496" />
<missing-glyph horiz-adv-x="598" />
<glyph horiz-adv-x="2048" />
<glyph horiz-adv-x="2048" />
<glyph unicode="&#xd;" horiz-adv-x="2048" />
<glyph unicode=" "  horiz-adv-x="598" />
<glyph unicode="&#x09;" horiz-adv-x="598" />
<glyph unicode="&#xa0;" horiz-adv-x="598" />
<glyph unicode="!" horiz-adv-x="559" d="M37 164q0 74 53.5 127t126.5 53q75 0 128.5 -53t53.5 -127q0 -75 -53.5 -127.5t-128.5 -52.5q-74 0 -127 52.5t-53 127.5zM170 459l37 653q4 75 10.5 128.5t20 102t34 78t52.5 47t75 17.5q64 0 101 -42t37 -114q0 -91 -39 -250l-156 -620h-172z" />
<glyph unicode="&#x22;" horiz-adv-x="1030" d="M190 1278v260h289v-260l-51 -287h-186zM702 1278v260h289v-260l-51 -287h-186z" />
<glyph unicode="#" horiz-adv-x="1257" d="M-12 213v240h205l57 280h-262v240h311l82 385h244l-82 -385h331l82 385h238l-82 -385h160v-240h-207l-57 -280h264v-240h-316l-82 -385h-239l80 385h-330l-80 -385h-244l82 385h-155zM436 453h328l57 280h-327z" />
<glyph unicode="$" horiz-adv-x="1052" d="M29 113l37 219q171 -111 335 -135l60 417q-155 86 -227 175.5t-72 216.5q0 154 107.5 265.5t301.5 133.5l11 80h168l-13 -92q161 -36 279 -115l-29 -213q-78 48 -137 73.5t-141 45.5l-54 -383q164 -95 231.5 -185t67.5 -210q0 -162 -114 -284t-301 -142l-33 -244h-168 l35 254q-102 17 -176.5 44t-167.5 79zM399 1038q0 -38 23.5 -71t77.5 -70l41 295q-142 -45 -142 -154zM571 205q142 50 142 170q0 90 -99 145z" />
<glyph unicode="%" horiz-adv-x="1546" d="M78 1139q0 145 101.5 245.5t246.5 100.5q143 0 244.5 -101t101.5 -245q0 -143 -102 -244.5t-244 -101.5q-144 0 -246 101.5t-102 244.5zM197 -16l1032 1501h172l-1026 -1501h-178zM272 1139q0 -65 45.5 -113.5t108.5 -48.5t107.5 46.5t44.5 115.5q0 66 -45 113.5 t-107 47.5q-65 0 -109.5 -46t-44.5 -115zM827 328q0 144 102 245t247 101q143 0 244.5 -101t101.5 -245q0 -142 -102 -244t-244 -102q-145 0 -247 101.5t-102 244.5zM1022 328q0 -65 45.5 -113.5t108.5 -48.5t107 46.5t44 115.5q0 66 -44.5 113.5t-106.5 47.5 q-65 0 -109.5 -46t-44.5 -115z" />
<glyph unicode="&#x26;" horiz-adv-x="1566" d="M33 426q0 87 32.5 165t97.5 144.5t172.5 113.5t248.5 66q0 285 127.5 427.5t351.5 142.5q160 0 260 -86.5t100 -224.5q0 -71 -27.5 -132.5t-86.5 -117t-162 -98t-244 -66.5q30 -111 58 -177t77 -143q109 92 158 217h283q-79 -199 -242 -368q87 -37 190 -37h91l-99 -252 q-53 -18 -123 -18q-81 0 -169.5 29.5t-161.5 84.5q-196 -114 -414 -114q-224 0 -371 126t-147 318zM354 451q0 -104 71.5 -171t180.5 -67q92 0 193 49q-132 205 -181 434q-126 -23 -195 -87t-69 -158zM856 1075q0 -58 12 -110q95 19 160.5 43t100.5 51.5t49 56t14 62.5 q0 57 -41.5 93t-106.5 36q-88 0 -138 -61.5t-50 -170.5z" />
<glyph unicode="'" horiz-adv-x="514" d="M178 1278v260h289v-260l-51 -287h-187z" />
<glyph unicode="(" horiz-adv-x="739" d="M94 328q0 293 122.5 576t373.5 581h219q-192 -239 -303 -573t-111 -672q0 -196 35.5 -388t101.5 -348h-221q-112 240 -164.5 438.5t-52.5 385.5z" />
<glyph unicode=")" horiz-adv-x="739" d="M-80 -496q192 239 303 574t111 672q0 196 -35.5 387.5t-101.5 347.5h221q112 -241 164.5 -438.5t52.5 -384.5q0 -293 -123 -576.5t-373 -581.5h-219z" />
<glyph unicode="*" horiz-adv-x="1030" d="M126 919.5q9 24.5 44 32.5l326 72v4l-326 74q-33 8 -43.5 31t6.5 55l64 123q18 39 37.5 37.5t70.5 -52.5l213 -219l25 25l-94 305q-12 41 2 60.5t59 19.5h123q47 0 61 -18.5t2 -61.5l-94 -305l25 -25l213 219q26 26 39 37t26 12.5t21.5 -8.5t21.5 -34l53 -97 q26 -46 20 -70.5t-46 -33.5l-326 -74v-4l326 -72q38 -7 45.5 -34t-14.5 -64l-56 -100q-25 -45 -41 -47.5t-51 32.5l-231 238l-25 -25l94 -305q23 -80 -55 -80h-131q-44 0 -59 17.5t-2 62.5l94 305l-25 25l-213 -219q-23 -23 -37 -34t-27 -14.5t-23 5t-21 28.5l-60 115 q-20 37 -11 61.5z" />
<glyph unicode="+" horiz-adv-x="1236" d="M100 514l37 256h402l55 401h256l-55 -401h401l-37 -256h-401l-56 -401h-256l56 401h-402z" />
<glyph unicode="," horiz-adv-x="559" d="M-96 -311l33 131q139 30 184 153q-103 59 -103 164q0 72 52.5 122t128.5 50q86 0 146.5 -65.5t60.5 -159.5q0 -74 -34.5 -144t-97 -126.5t-159 -90.5t-211.5 -34z" />
<glyph unicode="-" horiz-adv-x="741" d="M41 502l39 256h665l-34 -256h-670z" />
<glyph unicode="." horiz-adv-x="559" d="M25 164q0 74 53.5 127t126.5 53t126.5 -53t53.5 -127t-53.5 -127t-126.5 -53t-126.5 53t-53.5 127z" />
<glyph unicode="/" horiz-adv-x="604" d="M39 -18l364 1503h222l-369 -1503h-217z" />
<glyph unicode="0" horiz-adv-x="1142" d="M113 532q0 125 21.5 254t68 255t112 224.5t162.5 159t211 60.5q188 0 293.5 -146t105.5 -405q0 -97 -15.5 -202.5t-46 -212.5t-79.5 -203t-110.5 -171t-146 -119t-179.5 -44q-186 0 -291.5 146t-105.5 404zM418 453q0 -103 28 -151t86 -48q52 0 97 68t72 165.5t46 209.5 t27 195.5t8 127.5q0 97 -32.5 144.5t-79.5 47.5q-67 0 -119.5 -89.5t-79.5 -220.5t-40 -248t-13 -201z" />
<glyph unicode="1" horiz-adv-x="1142" d="M348 0l207 1466h303l-207 -1466h-303z" />
<glyph unicode="2" horiz-adv-x="1140" d="M61 0v47q370 489 502.5 700.5t132.5 319.5q0 62 -45 103.5t-112 41.5q-58 0 -125.5 -29t-186.5 -104l41 295q146 111 326 111q124 0 218 -54t141.5 -142t47.5 -195q0 -55 -9.5 -105.5t-36 -111.5t-53.5 -111.5t-84 -134.5t-103.5 -148t-134.5 -184h366l-41 -299h-844z " />
<glyph unicode="3" horiz-adv-x="1142" d="M63 74l37 278q189 -98 324 -98q98 0 166.5 56.5t68.5 138.5q0 83 -64.5 132.5t-172.5 49.5q-49 0 -113 -13l39 281q91 -22 166 -22q101 0 167.5 50.5t66.5 127.5q0 71 -49.5 114t-131.5 43q-71 0 -148.5 -21.5t-197.5 -74.5l41 291q179 78 348 78q197 0 321 -106 t124 -275q0 -133 -64 -224.5t-182 -131.5q170 -87 170 -308q0 -204 -152 -331t-395 -127q-97 0 -178.5 20t-190.5 72z" />
<glyph unicode="4" horiz-adv-x="1142" d="M63 338v244l721 903h244l-133 -948h160l-29 -199h-160l-47 -338h-303l47 338h-500zM266 537h326l67 481l-4 6z" />
<glyph unicode="5" horiz-adv-x="1142" d="M49 90l86 275q92 -62 155 -86.5t136 -24.5q110 0 181 61t71 156q0 100 -75 157.5t-204 57.5q-81 0 -166 -12l134 792h680l-43 -299h-386l-34 -239q108 -12 187 -51.5t124.5 -99.5t66.5 -129.5t21 -151.5q0 -229 -153 -371.5t-400 -142.5q-212 0 -381 108z" />
<glyph unicode="6" horiz-adv-x="1142" d="M96 438q0 123 45 244t152 283l332 501h342l-371 -571l4 -4q64 24 143 24q145 0 236.5 -104.5t91.5 -271.5q0 -155 -69.5 -283t-191 -201t-267.5 -73q-201 0 -324 125.5t-123 330.5zM401 416q0 -71 41 -116.5t107 -45.5q87 0 152 78.5t65 183.5q0 68 -38 110t-101 42 q-92 0 -159 -74.5t-67 -177.5z" />
<glyph unicode="7" horiz-adv-x="1140" d="M199 1167l59 299h860l-579 -1466h-320l463 1167h-483z" />
<glyph unicode="8" horiz-adv-x="1142" d="M86 389q0 55 17.5 115.5t51.5 120t93.5 105t134.5 61.5q-75 56 -109 121.5t-34 156.5q0 173 133 294.5t323 121.5q169 0 280 -100.5t111 -254.5q0 -113 -68.5 -213t-203.5 -159q99 -44 155 -131.5t56 -196.5q0 -124 -64.5 -227t-176 -162t-244.5 -59q-199 0 -327 114 t-128 293zM393 408q0 -69 39.5 -111.5t104.5 -42.5q77 0 130.5 62.5t53.5 154.5q0 69 -40.5 112.5t-105.5 43.5q-76 0 -129 -64t-53 -155zM528 1006q0 -47 30 -77t77 -30q72 0 109.5 61t37.5 138q0 51 -29.5 82.5t-78.5 31.5q-66 0 -106 -63t-40 -143z" />
<glyph unicode="9" horiz-adv-x="1140" d="M125 928q0 77 20.5 154.5t63.5 150.5t104 128.5t149 89.5t191 34q204 0 324.5 -124t120.5 -335q0 -228 -183 -502l-346 -524h-340l373 575l-4 5q-80 -27 -141 -27q-145 0 -238.5 105.5t-93.5 269.5zM430 948q0 -65 39.5 -104t105.5 -39q54 0 97.5 25t69 64t38.5 81t13 80 q0 68 -43 112.5t-107 44.5q-84 0 -148.5 -80.5t-64.5 -183.5z" />
<glyph unicode=":" horiz-adv-x="559" d="M23 162q0 75 53.5 128.5t128.5 53.5q74 0 127 -53.5t53 -128.5q0 -74 -53.5 -127t-126.5 -53q-75 0 -128.5 53t-53.5 127zM139 813q0 73 53.5 126.5t126.5 53.5q75 0 129 -53t54 -127q0 -75 -54 -128.5t-129 -53.5q-74 0 -127 53.5t-53 128.5z" />
<glyph unicode=";" horiz-adv-x="559" d="M-96 -311l33 131q135 29 184 155q-103 54 -103 162q0 73 52 122.5t129 49.5q86 0 146.5 -65.5t60.5 -159.5q0 -73 -35 -143t-97.5 -126.5t-159 -91t-210.5 -34.5zM141 813q0 74 53 127t128 53q74 0 127 -53.5t53 -126.5t-53 -126.5t-127 -53.5q-75 0 -128 53t-53 127z " />
<glyph unicode="&#x3c;" horiz-adv-x="1255" d="M129 635v258l1055 459v-295l-738 -293l738 -293v-295z" />
<glyph unicode="=" horiz-adv-x="1255" d="M82 389l37 256h1077l-37 -256h-1077zM147 856l37 256h1078l-37 -256h-1078z" />
<glyph unicode="&#x3e;" horiz-adv-x="1255" d="M127 176v295l737 293l-737 293v295l1055 -459v-258z" />
<glyph unicode="?" horiz-adv-x="694" d="M80 164q0 74 53 127t127 53t127 -53t53 -127q0 -75 -53 -127.5t-127 -52.5t-127 52.5t-53 127.5zM82 1102l41 282q159 101 309 101q151 0 251.5 -99t100.5 -247q0 -70 -19.5 -130t-51.5 -104t-71 -83.5t-80 -77.5t-77 -77t-64 -91t-38 -111h-227q2 95 36 180.5t82 146 t95.5 112.5t80.5 102.5t33 95.5t-34 73.5t-89 28.5q-105 0 -278 -102z" />
<glyph unicode="@" horiz-adv-x="2105" d="M86 496q0 101 17.5 203.5t57 209t98 201.5t146.5 179t195.5 144.5t252 96t310.5 35.5q196 0 362.5 -58.5t283 -163t182 -253.5t65.5 -326q0 -142 -50.5 -279t-139 -245t-220.5 -174t-284 -66q-85 0 -130.5 29t-60.5 92q-121 -121 -284 -121q-179 0 -291.5 122.5 t-112.5 317.5q0 91 22.5 187t70 187.5t113 163.5t158.5 115.5t200 43.5q93 0 165 -36.5t115 -105.5l27 117h276l-168 -797q-19 -100 35 -100q34 0 81 26.5t97.5 77.5t93.5 116.5t71 153.5t28 179q0 84 -22 165t-75 162.5t-133 143t-206.5 99.5t-284.5 38q-134 0 -251 -29 t-204 -78.5t-158 -118t-118.5 -146.5t-79.5 -165.5t-46 -172t-14 -168.5q0 -153 47.5 -280t130 -214.5t195.5 -148.5t242 -89t272 -28q502 0 725 280h226q-114 -227 -352.5 -348t-571.5 -121q-109 0 -217.5 15.5t-218.5 50.5t-207 87t-182.5 129.5t-146.5 172t-96.5 221 t-35.5 271.5zM754 436q0 -110 51.5 -176.5t136.5 -66.5q70 0 128 40t94 99t61 131t35 132.5t10 106.5q0 113 -53.5 179.5t-143.5 66.5q-62 0 -115.5 -32t-90 -84t-63 -119.5t-38.5 -138t-12 -138.5z" />
<glyph unicode="A" horiz-adv-x="1363" d="M-37 0l717 1485h332l258 -1485h-320l-45 319h-456l-142 -319h-344zM539 528h340l-78 650h-4z" />
<glyph unicode="B" horiz-adv-x="1404" d="M92 0l207 1466h465q110 0 196 -21t140 -54.5t89.5 -80.5t49.5 -95.5t14 -102.5q0 -218 -213 -328q126 -36 199.5 -134t73.5 -224q0 -56 -17.5 -113.5t-57.5 -114t-96.5 -100.5t-143 -71t-189.5 -27h-717zM434 246h297q135 0 197.5 60.5t62.5 154.5q0 96 -76 144t-198 48 h-221zM528 899h211q106 0 157.5 49.5t51.5 124.5q0 70 -52 109t-155 39h-163z" />
<glyph unicode="C" horiz-adv-x="1480" d="M104 651q0 244 121 434t339.5 295t498.5 105q186 0 397 -53l-51 -271q-171 53 -356 53q-135 0 -245.5 -37.5t-179.5 -96.5t-116 -135.5t-66.5 -151t-19.5 -146.5q0 -181 114 -288t306 -107q125 0 250 40.5t284 131.5l-45 -328q-257 -114 -516 -114q-320 0 -517.5 185 t-197.5 484z" />
<glyph unicode="D" horiz-adv-x="1644" d="M92 0l205 1466h487q169 0 303 -44t217 -115t138 -166.5t76.5 -191t21.5 -197.5q0 -214 -90.5 -386.5t-248.5 -269t-351 -96.5h-758zM438 246h293q101 0 183.5 29t138 78t94 115t55.5 139t17 151q0 202 -130.5 332.5t-363.5 130.5h-152z" />
<glyph unicode="E" horiz-adv-x="1271" d="M92 0l207 1466h915l-34 -245h-605l-49 -344h531l-33 -246h-532l-54 -385h762l-35 -246h-1073z" />
<glyph unicode="F" horiz-adv-x="1134" d="M92 0l207 1466h844l-37 -245h-531l-47 -344h459l-35 -246h-458l-91 -631h-311z" />
<glyph unicode="G" horiz-adv-x="1605" d="M104 643q0 82 17.5 163.5t57 165.5t98 158.5t144.5 140t191.5 112.5t246 74.5t300.5 27.5q252 0 426 -53l-37 -271q-194 53 -389 53q-213 0 -380 -69.5t-260 -197.5t-93 -294q0 -131 63 -223t166.5 -135t237.5 -43q103 0 219 27l37 262h-268l32 231h580l-104 -747 q-61 -18 -197.5 -30.5t-259.5 -12.5q-177 0 -319.5 38t-236 101.5t-156 150t-89.5 179t-27 192.5z" />
<glyph unicode="H" horiz-adv-x="1699" d="M92 0l205 1466h313l-82 -579h746l82 579h311l-205 -1466h-311l84 598h-748l-84 -598h-311z" />
<glyph unicode="I" horiz-adv-x="643" d="M92 0l207 1466h311l-207 -1466h-311z" />
<glyph unicode="J" horiz-adv-x="651" d="M-176 -489l35 243q114 2 167.5 52t71.5 180l209 1480h311l-217 -1542q-29 -215 -145 -317.5t-322 -102.5q-42 0 -110 7z" />
<glyph unicode="K" horiz-adv-x="1486" d="M92 0l207 1466h313l-90 -626l6 -4l619 630h371l-660 -661l572 -805h-363l-553 778l-108 -778h-314z" />
<glyph unicode="L" horiz-adv-x="1157" d="M92 0l207 1466h311l-172 -1220h668l-35 -246h-979z" />
<glyph unicode="M" horiz-adv-x="2035" d="M-20 0l477 1466h342l237 -921l494 921h332l69 -1466h-301l-45 991h-4l-545 -991h-149l-258 1020h-4l-330 -1020h-315z" />
<glyph unicode="N" horiz-adv-x="1681" d="M92 0l207 1466h311l592 -956h4l131 956h312l-205 -1466h-297l-602 993h-4l-138 -993h-311z" />
<glyph unicode="O" horiz-adv-x="1765" d="M104 662q0 176 65.5 329t179 261.5t274 170.5t344.5 62q320 0 520.5 -186.5t200.5 -481.5q0 -186 -64 -343t-176 -264.5t-267.5 -167.5t-336.5 -60q-211 0 -379.5 85.5t-264.5 241.5t-96 353zM426 678q0 -189 117 -307.5t303 -118.5q143 0 262.5 72t188.5 197t69 274 q0 183 -119 301t-303 118q-139 0 -258.5 -72t-189.5 -195.5t-70 -268.5z" />
<glyph unicode="P" horiz-adv-x="1296" d="M92 0l205 1466h479q100 0 186.5 -27.5t153.5 -80t105.5 -137t38.5 -191.5t-31.5 -191t-82.5 -136.5t-121.5 -87t-143 -48.5t-152.5 -14h-246l-77 -553h-314zM514 782h131q147 0 220 66t73 170q0 97 -72 158t-215 61h-73z" />
<glyph unicode="Q" horiz-adv-x="1765" d="M104 662q0 141 42 268t119.5 227.5t183.5 174.5t239.5 113.5t280.5 39.5q324 0 521.5 -185t197.5 -489q0 -111 -26 -217.5t-82 -205t-137 -177.5t-197 -135t-255 -78q58 -72 163.5 -127t201.5 -55q30 0 63 10l45 -29l-245 -243q-388 87 -699 485q-47 25 -78.5 43 t-79.5 51.5t-80 65.5t-68.5 81.5t-58.5 102.5t-36.5 125t-14.5 154zM426 672q0 -187 116 -303.5t302 -116.5q148 0 269 76t187 199t66 264q0 82 -28 157.5t-79.5 135t-132.5 95t-180 35.5q-143 0 -262.5 -71.5t-188.5 -196t-69 -274.5z" />
<glyph unicode="R" horiz-adv-x="1390" d="M57 0l205 1466h504q107 0 193.5 -28.5t141 -74t92 -105t52.5 -117.5t15 -115q0 -92 -34 -169.5t-109 -135.5t-183 -78v-4q55 -24 86 -62t67 -110l228 -467h-344l-142 297q-34 72 -56 114.5t-46 79.5t-42.5 54t-45.5 30t-53.5 16t-67.5 3h-65l-82 -594h-314zM483 821h156 q149 0 224 61.5t75 151.5q0 88 -64.5 137.5t-181.5 49.5h-151z" />
<glyph unicode="S" horiz-adv-x="1120" d="M27 121l47 256q88 -65 205 -107.5t208 -42.5q95 0 153 44t58 116q0 49 -29.5 92.5t-77 77.5t-105 68.5t-115 74.5t-105 86t-77 112t-29.5 144q0 125 66.5 226.5t185 159t264.5 57.5q226 0 418 -115l-43 -258q-73 53 -176.5 90t-186.5 37q-88 0 -147.5 -44.5t-59.5 -115.5 q0 -42 30 -80t77.5 -69.5t105.5 -65t115.5 -74t105 -88.5t77.5 -118.5t30 -153.5q0 -91 -32 -171t-92.5 -142t-157 -98.5t-216.5 -36.5q-285 0 -497 139z" />
<glyph unicode="T" horiz-adv-x="1331" d="M143 1221l35 245h1254l-35 -245h-477l-172 -1221h-312l172 1221h-465z" />
<glyph unicode="U" horiz-adv-x="1654" d="M168 514q0 62 16 176l113 776h311l-112 -796q-11 -85 -11 -109q0 -63 15.5 -114t43.5 -83.5t61 -55.5t73 -34.5t73 -16.5t66 -5q66 0 123.5 17t109.5 54t87.5 102.5t48.5 154.5l125 886h311l-129 -913q-19 -136 -69.5 -239.5t-116 -165.5t-152 -100.5t-167 -52 t-171.5 -13.5q-164 0 -289 39.5t-203 111t-117.5 167.5t-39.5 214z" />
<glyph unicode="V" horiz-adv-x="1187" d="M135 1466h297l160 -862h4l393 862h322l-717 -1484h-154z" />
<glyph unicode="W" horiz-adv-x="2039" d="M139 1466h295l154 -862h4l467 862h153l220 -862h4l395 862h315l-721 -1484h-127l-237 907l-494 -907h-129z" />
<glyph unicode="X" horiz-adv-x="1456" d="M-78 0l664 752l-430 714h342l293 -481l417 481h387l-649 -745l434 -721h-340l-295 487l-436 -487h-387z" />
<glyph unicode="Y" horiz-adv-x="1210" d="M154 1466h313l188 -565l340 565h334l-553 -852l-86 -614h-311l86 614z" />
<glyph unicode="Z" horiz-adv-x="1366" d="M-66 0l981 1221h-712l37 245h1263l-977 -1220h727l-32 -246h-1287z" />
<glyph unicode="[" horiz-adv-x="806" d="M66 -477l274 1943h559l-35 -245h-280l-201 -1452h276l-34 -246h-559z" />
<glyph unicode="\" horiz-adv-x="604" d="M39 1485h221l365 -1503h-217z" />
<glyph unicode="]" horiz-adv-x="804" d="M-102 -477l34 246h281l201 1452h-277l35 245h559l-274 -1943h-559z" />
<glyph unicode="^" horiz-adv-x="1253" d="M145 627l396 839h233l385 -839h-299l-207 514l-207 -514h-301z" />
<glyph unicode="_" horiz-adv-x="1101" d="M0 -162h1102v-106h-1102v106z" />
<glyph unicode="`" horiz-adv-x="716" d="M111 1452h346l190 -369h-155z" />
<glyph unicode="a" horiz-adv-x="1175" d="M76 399q0 89 22.5 171.5t75.5 160.5t132 135.5t201.5 92t274.5 34.5q175 0 330 -32l-135 -961h-291l12 90q-134 -108 -280 -108q-150 0 -246 116.5t-96 300.5zM377 385q0 -89 37.5 -138.5t103.5 -49.5q106 0 209 86l66 465q-32 4 -64 4q-171 0 -261.5 -104.5 t-90.5 -262.5z" />
<glyph unicode="b" d="M63 14l205 1452h289l-82 -587q74 64 133 89t131 25q156 0 259.5 -124.5t103.5 -313.5q0 -84 -22 -164t-71.5 -155t-120.5 -131t-177.5 -89.5t-235.5 -33.5q-248 0 -412 32zM381 223q46 -6 100 -6q159 0 238.5 86.5t79.5 239.5q0 98 -45 156.5t-121 58.5q-51 0 -95 -26.5 t-96 -90.5z" />
<glyph unicode="c" horiz-adv-x="1007" d="M76 451q0 151 82 275.5t225 195.5t317 71q68 0 145.5 -10.5t123.5 -24.5l-35 -262q-69 27 -109 35t-104 8q-148 0 -246 -85.5t-98 -213.5q0 -106 66 -164.5t186 -58.5q68 0 124 13t154 51l-35 -265q-143 -34 -301 -34q-219 0 -357 131t-138 338z" />
<glyph unicode="d" d="M76 451q0 81 23.5 158t73 147t119.5 122.5t170.5 83.5t219.5 31q40 0 143 -10l66 483h291l-205 -1452q-174 -32 -336 -32q-260 0 -412.5 126.5t-152.5 342.5zM377 449q0 -108 69.5 -170t190.5 -62q33 0 80 12l71 506q-32 4 -71 4q-162 0 -251 -86t-89 -204z" />
<glyph unicode="e" horiz-adv-x="1091" d="M76 455q0 147 70 271t191.5 195.5t266.5 71.5q193 0 305.5 -114t112.5 -299q0 -68 -14 -134h-637q-4 -12 -4 -32q0 -102 62.5 -159.5t162.5 -57.5q125 0 360 98l-51 -244q-186 -69 -340 -69q-222 0 -353.5 128.5t-131.5 344.5zM395 614h342q4 20 4 37q0 63 -39.5 102.5 t-103.5 39.5q-140 0 -203 -179z" />
<glyph unicode="f" horiz-adv-x="772" d="M53 760l31 215h201q28 257 154 383.5t306 126.5q116 0 236 -49l-33 -234q-99 47 -164 47q-191 0 -211 -274h189l-31 -215h-188l-168 -1188h-291l168 1188h-199z" />
<glyph unicode="g" horiz-adv-x="1026" d="M-57 -252q0 141 241 219q-62 29 -98.5 77.5t-36.5 102.5q0 139 197 181q-88 52 -129 121t-41 161q0 68 29.5 132.5t82.5 116.5t136.5 84t183.5 32h547l-29 -215h-156q35 -76 35 -154q0 -67 -25 -129t-72.5 -113.5t-128 -82.5t-181.5 -31q-105 0 -140.5 -10t-35.5 -41 q0 -20 25 -33.5t66 -20.5t93.5 -16.5t107 -19.5t107 -32.5t93.5 -52.5t66 -81.5t25 -118.5q0 -51 -13 -95t-48 -86t-89.5 -71.5t-143 -47.5t-203.5 -18q-108 0 -192 15t-134.5 38.5t-82.5 56.5t-44 65t-12 67zM197 -205q0 -53 51.5 -77.5t163.5 -24.5q122 0 173.5 22 t51.5 72q0 46 -56 70q-31 13 -176 44q-16 4 -30 7q-178 -21 -178 -113zM342 567q0 -64 37 -100.5t100 -36.5q45 0 77 18.5t49 50t24.5 66.5t7.5 76q0 65 -35 102t-98 37q-77 0 -119.5 -55t-42.5 -158z" />
<glyph unicode="h" d="M63 0l207 1466h291l-86 -598q157 125 326 125q139 0 205.5 -81t66.5 -220q0 -59 -14 -145l-76 -547h-291l74 530q12 87 12 113q0 59 -23 97t-67 38q-106 0 -246 -149l-88 -629h-291z" />
<glyph unicode="i" horiz-adv-x="555" d="M63 0l138 975h291l-140 -975h-289zM227 1247q0 63 44.5 106.5t107.5 43.5t106 -43.5t43 -106.5t-43 -107t-106 -44t-107.5 44t-44.5 107z" />
<glyph unicode="j" horiz-adv-x="555" d="M-156 -483l35 233q90 0 127 46.5t51 156.5l144 1022h291l-154 -1081q-57 -390 -399 -390q-41 0 -95 13zM227 1245q0 63 43.5 107.5t106.5 44.5t107 -44.5t44 -107.5q0 -62 -44 -105.5t-107 -43.5t-106.5 43.5t-43.5 105.5z" />
<glyph unicode="k" horiz-adv-x="1161" d="M63 0l207 1466h291l-129 -907l4 -4l346 420h361l-385 -463l375 -512h-353l-358 481l-68 -481h-291z" />
<glyph unicode="l" horiz-adv-x="555" d="M63 0l207 1466h291l-207 -1466h-291z" />
<glyph unicode="m" horiz-adv-x="1779" d="M63 0l138 975h291l-17 -123l4 -4q151 145 305 145q97 0 162.5 -46.5t85.5 -131.5q102 97 183 137.5t171 40.5q137 0 213 -83t76 -222q0 -36 -6 -80l-84 -608h-291l80 561q6 40 6 74q0 143 -84 143q-49 0 -112 -40t-125 -111l-88 -627h-289l74 559q6 55 6 96 q0 123 -90 123q-94 0 -230 -151l-88 -627h-291z" />
<glyph unicode="n" d="M63 0l140 975h289l-17 -107q157 125 326 125q139 0 205.5 -81t66.5 -220q0 -59 -14 -145l-76 -547h-291l74 530q12 87 12 113q0 59 -23 97t-67 38q-106 0 -246 -149l-88 -629h-291z" />
<glyph unicode="o" horiz-adv-x="1198" d="M76 451q0 109 45 209.5t120.5 173t179.5 116t218 43.5q212 0 347.5 -126.5t135.5 -334.5q0 -233 -159.5 -391.5t-395.5 -158.5q-207 0 -349 135.5t-142 333.5zM377 434q0 -104 59.5 -160.5t132.5 -56.5q60 0 110 31.5t79.5 80.5t46 104t16.5 108q0 97 -53.5 157 t-140.5 60q-54 0 -98.5 -24.5t-72 -61t-46 -82t-26 -85t-7.5 -71.5z" />
<glyph unicode="p" horiz-adv-x="1175" d="M-4 -494l233 1659h289l-24 -188q79 16 178 16q192 0 310 -117t118 -309q0 -160 -82 -295t-223 -212.5t-308 -77.5q-55 0 -131 18l-69 -494h-291zM389 238q46 -21 88 -21q71 0 128 22.5t92 58t59 82.5t33.5 92t9.5 89q0 103 -58 160t-166 57q-51 0 -112 -12z" />
<glyph unicode="q" horiz-adv-x="1181" d="M76 406q0 96 24.5 181.5t78.5 160t132 129t192 85.5t253 31h362l-209 -1487h-288l77 562q-159 -86 -282 -86q-154 0 -247 116.5t-93 307.5zM373 412q0 -97 46 -156t124 -59q88 0 184 69l68 488q-32 4 -47 4q-96 0 -170 -28.5t-117.5 -78t-65.5 -110t-22 -129.5z" />
<glyph unicode="r" horiz-adv-x="864" d="M63 0l140 975h289l-21 -137l4 -4q129 159 236 159q45 0 85.5 -24t90.5 -82l-137 -269q-71 105 -138 105q-47 0 -97.5 -44t-78.5 -97l-82 -582h-291z" />
<glyph unicode="s" horiz-adv-x="827" d="M39 70l41 217q13 -4 49 -17.5t55.5 -20t50 -15.5t58 -13t53.5 -4q44 0 70 15t26 40q0 24 -24 52.5t-60.5 55.5t-79 61t-79 67.5t-60.5 78t-24 89.5q0 141 102 229t264 88q144 0 307 -88l-24 -231q-72 38 -155 61t-126 23q-29 0 -47 -12.5t-18 -32.5q0 -28 33.5 -61 t81 -67.5t95.5 -74.5t81.5 -98.5t33.5 -124.5q0 -134 -102.5 -219.5t-263.5 -85.5t-338 88z" />
<glyph unicode="t" horiz-adv-x="821" d="M43 760l37 215h199l34 207h295l-41 -207h215l-39 -215h-215l-43 -236q-22 -121 -22 -155q0 -59 22 -95t66 -36q50 0 168 59v-254q-122 -61 -248 -61q-148 0 -225.5 92t-77.5 231q0 69 20 172l54 283h-199z" />
<glyph unicode="u" d="M104 279q0 40 17 174l74 522h290l-71 -500q-15 -107 -15 -143q0 -135 90 -135q112 0 246 143l88 635h291l-137 -975h-291l16 109q-72 -60 -154.5 -93.5t-160.5 -33.5q-140 0 -211.5 82t-71.5 215z" />
<glyph unicode="v" horiz-adv-x="985" d="M59 975h281l123 -541h4l258 541h307l-526 -993h-199z" />
<glyph unicode="w" horiz-adv-x="1568" d="M72 975h280l113 -565h4l293 565h174l104 -565h7l276 565h303l-553 -993h-186l-107 505l-280 -505h-183z" />
<glyph unicode="x" horiz-adv-x="1140" d="M-45 0l461 512l-279 463h320l147 -285l225 285h357l-426 -498l289 -477h-318l-160 305l-252 -305h-364z" />
<glyph unicode="y" horiz-adv-x="1044" d="M63 975h291l191 -567l258 567h303l-709 -1469h-305l283 584z" />
<glyph unicode="z" horiz-adv-x="983" d="M2 0l498 739h-398l35 236h844l-481 -739h426l-37 -236h-887z" />
<glyph unicode="{" horiz-adv-x="827" d="M63 430v246q130 0 180 79.5t50 239.5v170q0 211 97.5 301t295.5 90h94v-251h-12q-39 0 -63 -1t-48 -5.5t-37 -10.5t-25 -19.5t-17 -28.5t-9 -42.5t-5 -56.5t-1 -74q0 -72 -1.5 -115.5t-7 -98t-17.5 -90t-31.5 -75.5t-50.5 -72.5t-74 -62.5q43 -30 74 -62.5t50.5 -72.5 t31.5 -75.5t17.5 -90t7 -98t1.5 -115.5q0 -45 1 -74t5 -56.5t9 -42.5t17 -28.5t25 -19.5t37 -10.5t48 -5.5t63 -1h12v-252h-94q-198 0 -295.5 90.5t-97.5 301.5v170q0 158 -52.5 238.5t-177.5 80.5z" />
<glyph unicode="|" horiz-adv-x="604" d="M219 -238v2151h236v-2151h-236z" />
<glyph unicode="}" horiz-adv-x="827" d="M47 -199h12q39 0 63 1t48 5.5t37 10.5t25 19.5t17 28.5t9 42.5t5 56.5t1 74q0 72 1.5 115.5t7 98t17.5 90t31.5 75.5t50.5 72.5t74 62.5q-43 30 -74 62.5t-50.5 72.5t-31.5 75.5t-17.5 90t-7 98t-1.5 115.5q0 45 -1 74t-5 56.5t-9 42.5t-17 28.5t-25 19.5t-37 10.5 t-48 5.5t-63 1h-12v251h94q198 0 296 -90t98 -301v-170q0 -161 50 -240t179 -79v-246q-129 0 -179 -79t-50 -240v-170q0 -211 -98 -301.5t-296 -90.5h-94v252z" />
<glyph unicode="~" horiz-adv-x="1255" d="M61 377v282q100 82 181 118t164 36q62 0 137.5 -26.5t134.5 -57.5t129.5 -57.5t124.5 -26.5q72 0 143 36t172 124v-281q-63 -61 -160 -107t-180 -46q-58 0 -135.5 26.5t-139 58.5t-130.5 58.5t-113 26.5q-74 0 -146 -36t-182 -128z" />
<glyph unicode="&#xa3;" horiz-adv-x="1165" d="M119 -18l170 579h-160l31 227h198l43 148q162 549 500 549q124 0 213 -60l-29 -264q-82 51 -149 51q-80 0 -132.5 -59t-86.5 -172l-58 -193h183l-39 -227h-213l-84 -282q56 12 115 12q40 0 126.5 -18.5t151.5 -18.5q120 0 215 53l-57 -297q-65 -28 -144 -28 q-77 0 -222 24.5t-263 24.5q-135 0 -281 -49h-28z" />
<glyph unicode="&#xa9;" horiz-adv-x="1589" d="M-10 766q0 218 108 403.5t293.5 293.5t403.5 108q164 0 312.5 -64t256.5 -171.5t171.5 -256.5t63.5 -313t-63.5 -313t-171.5 -256.5t-256.5 -171.5t-312.5 -64q-218 0 -403.5 108t-293.5 293.5t-108 403.5zM150 766q0 -175 86.5 -324t235 -236t323.5 -87t324 87t236 236 t87 324t-87 323.5t-236 235t-324 86.5t-323.5 -86.5t-235 -235t-86.5 -323.5zM399 760q0 209 109.5 330.5t298.5 121.5q132 0 218 -63t132 -193l-170 -38q-28 75 -73 110t-113 35q-103 0 -160 -78t-57 -219q0 -140 55.5 -219.5t153.5 -79.5q145 0 194 180l170 -57 q-40 -132 -130.5 -201.5t-221.5 -69.5q-185 0 -295.5 120t-110.5 321z" />
<glyph unicode="&#xab;" horiz-adv-x="1165" d="M35 547l325 444h283l-352 -495l143 -496h-241zM623 547l323 444h285l-352 -495l143 -496h-244z" />
<glyph unicode="&#xad;" horiz-adv-x="741" d="M41 502l39 256h665l-34 -256h-670z" />
<glyph unicode="&#xae;" horiz-adv-x="1589" d="M-10 766q0 218 108 403.5t293.5 293.5t403.5 108q164 0 312.5 -64t256.5 -171.5t171.5 -256.5t63.5 -313t-63.5 -313t-171.5 -256.5t-256.5 -171.5t-312.5 -64q-218 0 -403.5 108t-293.5 293.5t-108 403.5zM147 766q0 -175 87 -324t236.5 -236t324.5 -87t324 87t236 236 t87 324t-87 324t-236 236t-324 87t-324.5 -87t-236.5 -236t-87 -324zM432 336v854h420q132 0 201 -66.5t69 -173.5q0 -97 -61.5 -161t-169.5 -76v-4q56 -21 87 -54.5t95 -146.5l101 -172h-213l-70 139q-20 43 -54 91t-61 77q-26 26 -54.5 34.5t-86.5 8.5h-31v-350h-172z M604 821h178q81 0 118.5 34.5t37.5 84.5q0 117 -176 117h-158v-236z" />
<glyph unicode="&#xbb;" horiz-adv-x="1165" d="M-66 0l353 494l-144 497h244l156 -549l-324 -442h-285zM522 0l352 494l-143 497h242l157 -549l-325 -442h-283z" />
<glyph unicode="&#x401;" horiz-adv-x="1271" d="M92 0l207 1466h915l-34 -245h-605l-49 -344h531l-33 -246h-532l-54 -385h762l-35 -246h-1073zM432 1726q0 58 41 99t100 41t99.5 -41t40.5 -99q0 -59 -41 -100t-99 -41q-59 0 -100 41.5t-41 99.5zM866 1726q0 58 41.5 99t100.5 41q58 0 98.5 -40.5t40.5 -99.5t-40.5 -100 t-98.5 -41q-59 0 -100.5 41.5t-41.5 99.5z" />
<glyph unicode="&#x402;" horiz-adv-x="1755" d="M143 1221l35 245h1254l-35 -245h-477l-46 -322h144q131 0 250.5 -37.5t206 -100t137.5 -148t51 -177.5q0 -102 -39 -181.5t-96.5 -126t-132 -77t-138 -41t-122.5 -10.5h-193l35 246h137q34 0 69 10t71.5 32.5t59.5 68t23 106.5q0 90 -78 140t-206 50h-209l-96 -653h-312 l172 1221h-465z" />
<glyph unicode="&#x403;" horiz-adv-x="1222" d="M92 0l205 1466h950l-28 -245h-641l-175 -1221h-311zM647 1585l191 369h346l-381 -369h-156z" />
<glyph unicode="&#x404;" horiz-adv-x="1480" d="M125 651q0 244 120.5 434t339 295t498.5 105q187 0 398 -53l-51 -271q-171 53 -357 53q-118 0 -216.5 -28t-167.5 -78t-116 -108.5t-77 -129.5h569l-35 -249h-579q8 -171 118.5 -270t296.5 -99q125 0 250.5 40.5t284.5 131.5l-45 -328q-256 -114 -516 -114 q-320 0 -517.5 185t-197.5 484z" />
<glyph unicode="&#x405;" horiz-adv-x="1120" d="M27 121l47 256q88 -65 205 -107.5t208 -42.5q95 0 153 44t58 116q0 49 -29.5 92.5t-77 77.5t-105 68.5t-115 74.5t-105 86t-77 112t-29.5 144q0 125 66.5 226.5t185 159t264.5 57.5q226 0 418 -115l-43 -258q-73 53 -176.5 90t-186.5 37q-88 0 -147.5 -44.5t-59.5 -115.5 q0 -42 30 -80t77.5 -69.5t105.5 -65t115.5 -74t105 -88.5t77.5 -118.5t30 -153.5q0 -91 -32 -171t-92.5 -142t-157 -98.5t-216.5 -36.5q-285 0 -497 139z" />
<glyph unicode="&#x406;" horiz-adv-x="643" d="M92 0l207 1466h311l-207 -1466h-311z" />
<glyph unicode="&#x407;" horiz-adv-x="649" d="M96 0l207 1466h311l-206 -1466h-312zM117 1737q0 63 44 106t107 43t106.5 -43t43.5 -106t-43.5 -107.5t-106.5 -44.5t-107 44.5t-44 107.5zM518 1737q0 63 44.5 106t107.5 43t106 -43t43 -106t-43 -107.5t-106 -44.5t-107.5 44.5t-44.5 107.5z" />
<glyph unicode="&#x408;" horiz-adv-x="651" d="M-176 -489l35 243q114 2 167.5 52t71.5 180l209 1480h311l-217 -1542q-29 -215 -145 -317.5t-322 -102.5q-42 0 -110 7z" />
<glyph unicode="&#x409;" horiz-adv-x="2404" d="M-59 0l8 281q57 -13 94 -13q123 0 178.5 61t75.5 197l133 940h1184l-86 -567h114q162 0 293.5 -41.5t211.5 -110t122.5 -151.5t42.5 -170q0 -82 -32.5 -157t-95 -136t-165.5 -97t-233 -36h-694l174 1223h-559l-95 -670q-16 -118 -52 -215.5t-96.5 -180t-157 -129 t-220.5 -46.5q-71 0 -145 18zM1436 246h297q135 0 196.5 60.5t61.5 154.5q0 96 -83 144t-206 48h-207z" />
<glyph unicode="&#x40a;" horiz-adv-x="2396" d="M92 0l205 1466h313l-82 -567h682l82 567h316l-88 -567h114q162 0 293.5 -41.5t211.5 -110t122.5 -151.5t42.5 -170q0 -82 -32.5 -157t-95 -136t-165.5 -97t-233 -36h-695l91 653h-678l-93 -653h-311zM1427 246h297q135 0 196.5 60.5t61.5 154.5q0 96 -82.5 144t-205.5 48 h-207z" />
<glyph unicode="&#x40b;" horiz-adv-x="1759" d="M143 1221l35 245h1254l-35 -245h-477l-56 -398q92 66 177 87.5t176 21.5q202 0 326 -103t124 -278q0 -33 -72 -551h-313q21 127 46.5 314.5t25.5 213.5q0 82 -49.5 126t-137.5 44q-90 0 -165 -21t-166 -85l-88 -592h-312l172 1221h-465z" />
<glyph unicode="&#x40c;" horiz-adv-x="1495" d="M92 0l207 1466h311l-80 -575h101q96 0 158.5 61.5t142.5 227.5q145 305 364 305q84 0 185 -27l-37 -272q-4 1 -21.5 5.5t-35 7.5t-35.5 3q-68 0 -114.5 -58.5t-90.5 -168.5q-24 -59 -91 -131.5t-132 -100.5q30 -4 56.5 -15.5t48.5 -26.5t43 -42.5t37.5 -52.5t35.5 -69.5 t32.5 -79.5t34 -95.5t34.5 -106t38.5 -122.5t42.5 -133h-332q-12 43 -30.5 111t-30.5 112t-30.5 103t-34.5 97t-39 79t-47 64.5t-56 39t-68 15.5h-167l-86 -621h-314zM733 1585l191 369h346l-381 -369h-156z" />
<glyph unicode="&#x40e;" horiz-adv-x="1327" d="M174 1466h334l192 -727l338 727h334l-485 -966q-59 -117 -90.5 -176t-75 -130t-75 -101.5t-76.5 -61t-94 -40t-114 -9.5q-82 0 -143 20l39 268q54 -28 94 -28q45 0 77 24.5t60 100.5zM397 1843l224 119q1 -37 10 -73.5t29 -73.5t58.5 -60.5t90.5 -23.5q53 0 100.5 23.5 t80 60.5t54 74.5t31.5 72.5l180 -119q-64 -116 -180.5 -190t-286.5 -74q-88 0 -158 21.5t-115.5 59.5t-74 83.5t-43.5 99.5z" />
<glyph unicode="&#x40f;" horiz-adv-x="1716" d="M100 0l205 1466h311l-170 -1220h742l172 1220h313l-213 -1466h-504l-51 -367h-311l51 367h-545z" />
<glyph unicode="&#x410;" horiz-adv-x="1363" d="M-37 0l717 1485h332l258 -1485h-320l-45 319h-456l-142 -319h-344zM539 528h340l-78 650h-4z" />
<glyph unicode="&#x411;" horiz-adv-x="1404" d="M92 0l207 1466h950l-30 -245h-641l-50 -322h47q151 0 275.5 -25.5t209 -69t142.5 -102t84.5 -124t26.5 -136.5q0 -56 -17.5 -115t-57.5 -118t-96.5 -105t-143 -75t-189.5 -29h-717zM436 246h297q135 0 196.5 60.5t61.5 154.5q0 79 -83.5 135.5t-237.5 56.5h-174z" />
<glyph unicode="&#x412;" horiz-adv-x="1404" d="M92 0l207 1466h465q110 0 196 -21t140 -54.5t89.5 -80.5t49.5 -95.5t14 -102.5q0 -218 -213 -328q126 -36 199.5 -134t73.5 -224q0 -56 -17.5 -113.5t-57.5 -114t-96.5 -100.5t-143 -71t-189.5 -27h-717zM434 246h297q135 0 197.5 60.5t62.5 154.5q0 96 -76 144t-198 48 h-221zM528 899h211q106 0 157.5 49.5t51.5 124.5q0 70 -52 109t-155 39h-163z" />
<glyph unicode="&#x413;" horiz-adv-x="1222" d="M92 0l205 1466h950l-28 -245h-641l-175 -1221h-311z" />
<glyph unicode="&#x414;" horiz-adv-x="1785" d="M-41 -367l86 613h51q177 78 296 303t163 545l51 372h1075l-172 -1220h133l-88 -613h-311l51 367h-972l-52 -367h-311zM530 246h670l135 975h-448q-51 -379 -143.5 -622.5t-213.5 -352.5z" />
<glyph unicode="&#x415;" horiz-adv-x="1271" d="M92 0l207 1466h915l-34 -245h-605l-49 -344h531l-33 -246h-532l-54 -385h762l-35 -246h-1073z" />
<glyph unicode="&#x416;" horiz-adv-x="2183" d="M-12 0q38 65 96 164t87 148t73.5 120.5t71 106.5t64 79t67.5 65t67 38t76 22q-121 74 -166 289q-19 90 -47.5 130t-73.5 40q-34 0 -104 -14l26 270q110 27 193 27q117 0 192 -74t95 -223q22 -167 70 -232t147 -65h45l82 575h311l-80 -575h45q100 0 167 65t134 232 q57 142 156.5 219.5t214.5 77.5q71 0 172 -27l-35 -270q-5 1 -23.5 5t-35.5 6.5t-35 2.5q-51 0 -96 -40.5t-93 -153.5q-31 -75 -103 -155.5t-136 -109.5q30 -4 56.5 -15.5t48.5 -26.5t43 -42.5t37.5 -52.5t35.5 -69.5t32.5 -79.5t34 -95.5t34.5 -106t38.5 -122.5t42.5 -133 h-344q-14 47 -32.5 114t-30 108t-28 95.5t-30 88t-31.5 72.5t-37 61.5t-42 43t-51 29.5t-60 9h-88l-86 -621h-311l86 621h-92q-47 0 -91.5 -19.5t-90.5 -70.5t-78.5 -91t-82.5 -130t-74.5 -136t-80.5 -158q-3 -5 -4.5 -8.5t-3.5 -7.5h-344z" />
<glyph unicode="&#x417;" horiz-adv-x="1277" d="M66 86l47 274q153 -75 248.5 -104t199.5 -29q138 0 220.5 66.5t82.5 167.5q0 52 -22 90t-61.5 60t-87.5 32t-107 10h-152l33 246h127q227 0 227 174q0 79 -61.5 122.5t-177.5 43.5q-133 0 -353 -121l39 275q99 51 180.5 71.5t237.5 20.5q102 0 187 -31.5t139 -84t84 -119 t30 -138.5q0 -219 -213 -328q73 -20 128.5 -62t85.5 -94t44.5 -102.5t14.5 -97.5q0 -144 -87 -246.5t-231.5 -151t-332.5 -48.5q-283 0 -469 104z" />
<glyph unicode="&#x418;" horiz-adv-x="1652" d="M92 0l207 1466h311l-118 -862l989 862h139l-207 -1466h-311l125 887l-1032 -887h-103z" />
<glyph unicode="&#x419;" horiz-adv-x="1652" d="M92 0l207 1466h311l-118 -862l989 862h139l-207 -1466h-311l125 887l-1032 -887h-103zM610 1853l224 119q1 -37 10 -73.5t29 -73.5t58.5 -60.5t90.5 -23.5q53 0 100.5 23.5t80 60.5t54 74.5t31.5 72.5l180 -119q-64 -116 -180.5 -190t-286.5 -74q-88 0 -158 21.5 t-115.5 59.5t-74 83.5t-43.5 99.5z" />
<glyph unicode="&#x41a;" horiz-adv-x="1495" d="M92 0l207 1466h311l-80 -575h101q96 0 158.5 61.5t142.5 227.5q145 305 364 305q84 0 185 -27l-37 -272q-4 1 -21.5 5.5t-35 7.5t-35.5 3q-68 0 -114.5 -58.5t-90.5 -168.5q-24 -59 -91 -131.5t-132 -100.5q30 -4 56.5 -15.5t48.5 -26.5t43 -42.5t37.5 -52.5t35.5 -69.5 t32.5 -79.5t34 -95.5t34.5 -106t38.5 -122.5t42.5 -133h-332q-12 43 -30.5 111t-30.5 112t-30.5 103t-34.5 97t-39 79t-47 64.5t-56 39t-68 15.5h-167l-86 -621h-314z" />
<glyph unicode="&#x41b;" horiz-adv-x="1646" d="M-88 6l37 275q12 -3 25 -7t21 -5t21 -1q186 0 320 406q50 153 76.5 321.5t58.5 470.5h1143l-205 -1466h-313l172 1221h-510q-5 -26 -19 -104t-25 -137t-32.5 -153.5t-43 -167.5t-54.5 -165t-68 -160.5t-84 -137.5t-102.5 -113.5t-122 -72.5t-144.5 -28q-53 0 -151 24z " />
<glyph unicode="&#x41c;" horiz-adv-x="2035" d="M-20 0l477 1466h342l237 -921l494 921h332l69 -1466h-301l-45 991h-4l-545 -991h-149l-258 1020h-4l-330 -1020h-315z" />
<glyph unicode="&#x41d;" horiz-adv-x="1699" d="M92 0l205 1466h313l-82 -579h746l82 579h311l-205 -1466h-311l84 598h-748l-84 -598h-311z" />
<glyph unicode="&#x41e;" horiz-adv-x="1765" d="M104 662q0 176 65.5 329t179 261.5t274 170.5t344.5 62q320 0 520.5 -186.5t200.5 -481.5q0 -186 -64 -343t-176 -264.5t-267.5 -167.5t-336.5 -60q-211 0 -379.5 85.5t-264.5 241.5t-96 353zM426 678q0 -189 117 -307.5t303 -118.5q143 0 262.5 72t188.5 197t69 274 q0 183 -119 301t-303 118q-139 0 -258.5 -72t-189.5 -195.5t-70 -268.5z" />
<glyph unicode="&#x41f;" horiz-adv-x="1646" d="M92 0l207 1466l1315 -2l-207 -1464h-311l170 1221h-691l-172 -1221h-311z" />
<glyph unicode="&#x420;" horiz-adv-x="1296" d="M92 0l205 1466h479q100 0 186.5 -27.5t153.5 -80t105.5 -137t38.5 -191.5t-31.5 -191t-82.5 -136.5t-121.5 -87t-143 -48.5t-152.5 -14h-246l-77 -553h-314zM514 782h131q147 0 220 66t73 170q0 97 -72 158t-215 61h-73z" />
<glyph unicode="&#x421;" horiz-adv-x="1480" d="M104 651q0 244 121 434t339.5 295t498.5 105q186 0 397 -53l-51 -271q-171 53 -356 53q-135 0 -245.5 -37.5t-179.5 -96.5t-116 -135.5t-66.5 -151t-19.5 -146.5q0 -181 114 -288t306 -107q125 0 250 40.5t284 131.5l-45 -328q-257 -114 -516 -114q-320 0 -517.5 185 t-197.5 484z" />
<glyph unicode="&#x422;" horiz-adv-x="1331" d="M143 1221l35 245h1254l-35 -245h-477l-172 -1221h-312l172 1221h-465z" />
<glyph unicode="&#x423;" horiz-adv-x="1327" d="M174 1466h334l192 -727l338 727h334l-485 -966q-59 -117 -90.5 -176t-75 -130t-75 -101.5t-76.5 -61t-94 -40t-114 -9.5q-82 0 -143 20l39 268q54 -28 94 -28q45 0 77 24.5t60 100.5z" />
<glyph unicode="&#x424;" horiz-adv-x="1867" d="M104 682q0 150 34 276.5t97 219.5t150 158t195 97.5t231 32.5h78l24 174h312l-25 -174h103q225 0 366 -136.5t141 -366.5q0 -147 -57 -287t-152 -244t-226 -167.5t-271 -63.5h-78l-27 -201h-317l33 201h-76q-123 0 -224.5 37t-169 102t-104.5 153t-37 189zM426 729 q0 -97 56.5 -177.5t152.5 -80.5h117l98 725h-84q-138 0 -239 -125t-101 -342zM1065 471h90q137 0 235.5 125.5t98.5 343.5q0 99 -53 177.5t-148 78.5h-117z" />
<glyph unicode="&#x425;" horiz-adv-x="1456" d="M-78 0l664 752l-430 714h342l293 -481l417 481h387l-649 -745l434 -721h-340l-295 487l-436 -487h-387z" />
<glyph unicode="&#x426;" horiz-adv-x="1732" d="M92 -2l205 1466h311l-174 -1218h690l172 1220h314l-174 -1220h250l-87 -613h-311l51 367z" />
<glyph unicode="&#x427;" horiz-adv-x="1482" d="M143 915q0 29 72 551h313q-71 -478 -71 -528q0 -87 51.5 -128.5t130.5 -41.5q37 0 65 2t73.5 11.5t85.5 27t91.5 51.5t100.5 82l73 524h312l-205 -1466h-313l100 700q-107 -91 -205 -128t-223 -37q-202 0 -326.5 102.5t-124.5 277.5z" />
<glyph unicode="&#x428;" horiz-adv-x="2381" d="M92 0l207 1466h313l-170 -1220h557l170 1220h312l-170 -1220h555l172 1220h311l-207 -1466h-2050z" />
<glyph unicode="&#x429;" horiz-adv-x="2473" d="M92 0l207 1466h313l-170 -1220h557l170 1220h312l-170 -1220h555l172 1220h311l-172 -1220h250l-86 -613h-311l51 367h-1989z" />
<glyph unicode="&#x42a;" horiz-adv-x="1470" d="M-61 1221l30 245h711l-84 -567h113q163 0 294.5 -42t211 -111t121.5 -151.5t42 -170.5q0 -82 -32 -156.5t-94.5 -135t-165.5 -96.5t-234 -36h-694l172 1221h-391zM502 246h297q136 0 197 60t61 155q0 65 -41.5 110t-104 63.5t-141.5 18.5h-207z" />
<glyph unicode="&#x42b;" horiz-adv-x="1992" d="M92 0l209 1466h313l-86 -567h115q131 0 243 -27.5t189.5 -73.5t132.5 -107.5t81 -128.5t26 -136q0 -65 -20 -126t-62.5 -116t-103.5 -95.5t-149.5 -64.5t-193.5 -24h-694zM436 246h297q136 0 197 60t61 155q0 66 -41.5 110.5t-104.5 63t-143 18.5h-204zM1442 0l205 1466 h313l-207 -1466h-311z" />
<glyph unicode="&#x42c;" horiz-adv-x="1404" d="M92 0l209 1466h313l-86 -567h115q162 0 293.5 -41.5t211.5 -110t122.5 -151.5t42.5 -170q0 -82 -32.5 -157t-95 -135.5t-166 -97t-233.5 -36.5h-694zM436 246h297q135 0 196.5 60.5t61.5 154.5q0 96 -83 144t-206 48h-206z" />
<glyph unicode="&#x42d;" horiz-adv-x="1515" d="M82 35l51 270q171 -53 354 -53q104 0 194 22.5t154 58.5t114 85.5t80.5 100.5t47.5 106h-600l39 245h596q-26 170 -136.5 257t-283.5 87q-124 0 -247.5 -40.5t-282.5 -131.5l45 328q252 115 516 115q319 0 517 -185.5t198 -484.5q0 -181 -70.5 -336t-196 -264 t-304.5 -171t-390 -62q-195 0 -395 53z" />
<glyph unicode="&#x42e;" horiz-adv-x="2439" d="M92 0l205 1466h311l-82 -559h285q44 165 159.5 295.5t290.5 206.5t379 76q210 0 374 -83.5t255.5 -236t91.5 -348.5q0 -186 -64 -343t-176.5 -264.5t-268 -167.5t-336.5 -60q-203 0 -367 80t-261.5 226t-107.5 335h-293l-86 -623h-309zM1100 686q0 -192 116 -313 t304 -121q217 0 368.5 157.5t151.5 385.5q0 184 -118.5 301.5t-303.5 117.5q-140 0 -259.5 -71t-189 -192.5t-69.5 -264.5z" />
<glyph unicode="&#x42f;" horiz-adv-x="1359" d="M-55 0q54 87 117 192.5t96 161.5t74.5 120t70.5 98t65 64.5t76 49.5q-206 104 -206 301q0 92 39.5 178.5t108.5 153t172 107t222 40.5h547l-207 -1466h-311l84 596h-105q-57 0 -106.5 -29.5t-97.5 -93t-85.5 -125.5t-98.5 -168.5t-109 -179.5h-346zM559 1004 q0 -72 51 -106t127 -34h195l45 334h-170q-114 0 -181 -50t-67 -144z" />
<glyph unicode="&#x430;" horiz-adv-x="1175" d="M76 399q0 89 22.5 171.5t75.5 160.5t132 135.5t201.5 92t274.5 34.5q175 0 330 -32l-135 -961h-291l12 90q-134 -108 -280 -108q-150 0 -246 116.5t-96 300.5zM377 385q0 -89 37.5 -138.5t103.5 -49.5q106 0 209 86l66 465q-32 4 -64 4q-171 0 -261.5 -104.5 t-90.5 -262.5z" />
<glyph unicode="&#x431;" horiz-adv-x="1150" d="M76 457q0 96 8.5 185t34.5 198t68.5 199.5t117.5 177t174 143.5q86 50 280.5 83.5t377.5 33.5l-52 -269q-43 -4 -109 -8t-104 -6.5t-93.5 -8.5t-89 -13.5t-78 -20.5t-72.5 -30t-61 -43t-55.5 -59t-43 -77t-35.5 -98q53 54 121 85.5t112 38.5t85 7q185 0 305 -112 t120 -283q0 -118 -31 -217.5t-84.5 -169t-125 -117.5t-152.5 -71t-168 -23q-98 0 -184.5 43.5t-143.5 112t-89.5 152.5t-32.5 167zM354 442q0 -97 54 -161t141 -64q76 0 135.5 52.5t87 122.5t27.5 136t-18 114t-48.5 72.5t-62 35t-66.5 10.5q-103 0 -176.5 -96.5 t-73.5 -221.5z" />
<glyph unicode="&#x432;" horiz-adv-x="1044" d="M76 440q0 79 19.5 156t63 149t105.5 127t154.5 88t202.5 33q168 0 255 -64t87 -151q0 -51 -19.5 -94t-52.5 -71t-70.5 -46t-77.5 -26q108 -30 167 -89.5t59 -144.5q0 -149 -120.5 -237t-318.5 -88q-98 0 -177.5 28.5t-130 74t-84.5 106.5t-48 123t-14 126zM365 420 q0 -46 8.5 -83.5t27 -70t54 -51t84.5 -18.5q47 0 82.5 27.5t35.5 86.5q0 55 -43.5 83t-121.5 28h-125zM389 592h115q70 0 122 31.5t52 72.5q0 58 -28.5 77.5t-78.5 19.5q-20 0 -43 -9t-51 -29.5t-52 -62.5t-36 -100z" />
<glyph unicode="&#x433;" horiz-adv-x="866" d="M49 262q0 59 16.5 105.5t48 79t58 51.5t66.5 42q11 6 16 9q31 18 105 52t108.5 60.5t34.5 59.5q0 17 -1.5 26t-8 21.5t-24.5 18.5t-46 6q-35 0 -74 -9.5t-61.5 -18t-74 -31t-67.5 -29.5l43 239q158 49 263 49q164 0 258 -71.5t94 -196.5q0 -50 -21 -93.5t-60 -79 t-76.5 -60.5t-88.5 -52q-18 -10 -62.5 -32.5t-60.5 -32t-40.5 -28t-33 -36t-8.5 -39.5q0 -59 127 -59q98 0 252 68l-35 -252q-142 -50 -286 -47q-166 3 -263.5 86t-97.5 194z" />
<glyph unicode="&#x434;" horiz-adv-x="1198" d="M76 453q0 119 45 222.5t118.5 172t165.5 107t187 38.5q27 0 64 -7t83 -23t86.5 -49.5t59.5 -77.5q4 24 4 57q0 44 -4.5 83.5t-20 89t-41.5 85t-74 60t-112 24.5q-37 0 -68.5 -3t-51.5 -6.5t-47.5 -13.5t-39.5 -15t-45 -20.5t-47 -21.5l39 283q89 31 156 42t159 11 q83 0 152 -26t114.5 -67.5t81 -96t54.5 -107t31.5 -106.5t16 -88.5t3.5 -57.5q0 -179 -23 -325.5t-72 -265.5t-123.5 -200t-181 -125t-241.5 -44q-78 0 -155 35.5t-137.5 96t-98 150t-37.5 189.5zM358 432q0 -105 59.5 -162t137.5 -57q63 0 113.5 33.5t79 85t43 106 t14.5 103.5q0 96 -55.5 156.5t-139.5 60.5q-54 0 -99 -24.5t-72.5 -61t-46.5 -82t-26.5 -85.5t-7.5 -73z" />
<glyph unicode="&#x435;" horiz-adv-x="1091" d="M76 455q0 147 70 271t191.5 195.5t266.5 71.5q193 0 305.5 -114t112.5 -299q0 -68 -14 -134h-637q-4 -12 -4 -32q0 -102 62.5 -159.5t162.5 -57.5q125 0 360 98l-51 -244q-186 -69 -340 -69q-222 0 -353.5 128.5t-131.5 344.5zM395 614h342q4 20 4 37q0 63 -39.5 102.5 t-103.5 39.5q-140 0 -203 -179z" />
<glyph unicode="&#x436;" horiz-adv-x="1669" d="M-45 0q87 121 186 285q111 189 242 237q-26 12 -51.5 47t-34.5 72q-14 66 -32.5 96.5t-61.5 30.5t-82 -23l33 213q62 35 137 35q212 0 241 -198q25 -191 144 -191h26l52 371h290l-51 -371h25q62 0 108 47.5t88 143.5q84 198 297 198q73 0 129 -35l-32 -213q-33 23 -74 23 q-38 0 -67.5 -32.5t-61.5 -94.5q-20 -38 -55.5 -72.5t-65.5 -46.5q124 -48 180 -237q52 -169 103 -285h-330q-61 218 -91 285q-48 107 -118 122q-14 3 -29 3h-34l-58 -410h-291l58 410h-35q-27 0 -51 -9t-48 -30.5t-43.5 -43.5t-46.5 -63.5t-46.5 -73.5t-54.5 -91t-60 -99 h-334z" />
<glyph unicode="&#x437;" horiz-adv-x="925" d="M10 68l49 221q168 -103 308 -103q83 0 129.5 33.5t46.5 95.5q0 60 -43.5 83.5t-120.5 23.5h-125l22 170h97q30 0 60 5t62 16.5t52 35.5t20 58q0 18 -4.5 31.5t-17.5 28.5t-42 23.5t-73 8.5q-99 0 -272 -66l24 201q54 26 149 42.5t177 16.5q154 0 246 -55t92 -156 q0 -53 -18.5 -95.5t-50 -70t-67 -45t-75.5 -26.5q215 -56 215 -236q0 -61 -19 -110.5t-49 -82.5t-73 -58.5t-86 -39.5t-92.5 -22.5t-87 -11t-76.5 -2.5q-66 0 -176 27t-181 59z" />
<glyph unicode="&#x438;" d="M104 279q0 40 17 174l74 522h290l-71 -500q-15 -107 -15 -143q0 -135 90 -135q112 0 246 143l88 635h291l-137 -975h-291l16 109q-72 -60 -154.5 -93.5t-160.5 -33.5q-140 0 -211.5 82t-71.5 215z" />
<glyph unicode="&#x439;" d="M104 279q0 40 17 174l74 522h290l-71 -500q-15 -107 -15 -143q0 -135 90 -135q112 0 246 143l88 635h291l-137 -975h-291l16 109q-72 -60 -154.5 -93.5t-160.5 -33.5q-140 0 -211.5 82t-71.5 215zM408 1219l155 122q2 -61 38 -105t87 -44q50 0 97.5 44t68.5 105l119 -122 q-30 -52 -115 -108t-190 -56q-56 0 -104.5 18t-79.5 45t-50 53t-26 48z" />
<glyph unicode="&#x43a;" horiz-adv-x="1136" d="M63 0l138 977h291l-52 -373h47q62 0 108.5 48t86.5 143q87 198 297 198q73 0 129 -35l-33 -217q-34 27 -71 27q-23 0 -40.5 -8t-34 -29t-26.5 -37.5t-29 -52.5q-22 -38 -56.5 -72.5t-63.5 -46.5q121 -48 178 -237q5 -16 20.5 -64t24 -72.5t24.5 -67t33 -81.5h-332 q-13 39 -31.5 99t-29 91t-26 73.5t-29 64t-31.5 43.5t-39.5 30.5t-48.5 8.5h-55l-58 -410h-291z" />
<glyph unicode="&#x43b;" horiz-adv-x="1185" d="M-39 0q5 32 19 104t20 113q10 -10 51 -10q65 0 98 37.5t50 134.5l102 596h821l-137 -975h-291l111 780h-254l-80 -454q-61 -344 -383 -344q-46 0 -127 18z" />
<glyph unicode="&#x43c;" horiz-adv-x="1439" d="M-20 0l380 975h283l88 -690l234 690h313l61 -975h-274v592h-12l-254 -592h-219l-103 602h-14l-193 -602h-290z" />
<glyph unicode="&#x43d;" horiz-adv-x="1212" d="M63 0l140 975h289l-48 -330h367l47 330h291l-139 -975h-289l55 410h-360l-62 -410h-291z" />
<glyph unicode="&#x43e;" horiz-adv-x="1198" d="M76 451q0 109 45 209.5t120.5 173t179.5 116t218 43.5q212 0 347.5 -126.5t135.5 -334.5q0 -233 -159.5 -391.5t-395.5 -158.5q-207 0 -349 135.5t-142 333.5zM377 434q0 -104 59.5 -160.5t132.5 -56.5q60 0 110 31.5t79.5 80.5t46 104t16.5 108q0 97 -53.5 157 t-140.5 60q-54 0 -98.5 -24.5t-72 -61t-46 -82t-26 -85t-7.5 -71.5z" />
<glyph unicode="&#x43f;" d="M63 0l140 975h289l-17 -107q157 125 326 125q139 0 205.5 -81t66.5 -220q0 -59 -14 -145l-76 -547h-291l74 530q12 87 12 113q0 59 -23 97t-67 38q-106 0 -246 -149l-88 -629h-291z" />
<glyph unicode="&#x440;" horiz-adv-x="1175" d="M-4 -494l233 1659h289l-24 -188q79 16 178 16q192 0 310 -117t118 -309q0 -160 -82 -295t-223 -212.5t-308 -77.5q-55 0 -131 18l-69 -494h-291zM389 238q46 -21 88 -21q71 0 128 22.5t92 58t59 82.5t33.5 92t9.5 89q0 103 -58 160t-166 57q-51 0 -112 -12z" />
<glyph unicode="&#x441;" horiz-adv-x="1007" d="M76 451q0 151 82 275.5t225 195.5t317 71q68 0 145.5 -10.5t123.5 -24.5l-35 -262q-69 27 -109 35t-104 8q-148 0 -246 -85.5t-98 -213.5q0 -106 66 -164.5t186 -58.5q68 0 124 13t154 51l-35 -265q-143 -34 -301 -34q-219 0 -357 131t-138 338z" />
<glyph unicode="&#x442;" horiz-adv-x="1779" d="M63 0l138 975h291l-17 -123l4 -4q151 145 305 145q97 0 162.5 -46.5t85.5 -131.5q102 97 183 137.5t171 40.5q137 0 213 -83t76 -222q0 -36 -6 -80l-84 -608h-291l80 561q6 40 6 74q0 143 -84 143q-49 0 -112 -40t-125 -111l-88 -627h-289l74 559q6 55 6 96 q0 123 -90 123q-94 0 -230 -151l-88 -627h-291z" />
<glyph unicode="&#x443;" horiz-adv-x="1044" d="M63 975h291l191 -567l258 567h303l-709 -1469h-305l283 584z" />
<glyph unicode="&#x444;" horiz-adv-x="1740" d="M76 410q0 126 54 237.5t140 186t192.5 117t213.5 42.5q23 0 61.5 -5.5t57.5 -14.5l71 502h293l-74 -498q106 16 195 16q165 0 275 -114.5t110 -313.5q0 -121 -52 -231t-135.5 -186t-191.5 -121t-219 -45q-45 0 -119 18l-69 -483h-291l69 483q-8 -2 -24 -5t-22 -4t-19 -3 t-22 -2.5t-23.5 -1.5t-31 -1.5t-38.5 -0.5q-180 0 -290.5 114.5t-110.5 313.5zM373 444q0 -105 53.5 -166t144.5 -61q70 0 119 14l74 529q-43 18 -92 18q-129 0 -214 -100t-85 -234zM981 238q43 -21 96 -21q129 0 212 100.5t83 235.5q0 106 -51.5 165.5t-142.5 59.5 q-77 0 -123 -12z" />
<glyph unicode="&#x445;" horiz-adv-x="1140" d="M-45 0l461 512l-279 463h320l147 -285l225 285h357l-426 -498l289 -477h-318l-160 305l-252 -305h-364z" />
<glyph unicode="&#x446;" horiz-adv-x="1347" d="M104 279q0 53 17 174l74 522h290l-71 -500q-15 -107 -15 -143q0 -135 90 -135q112 0 246 143l88 635h291l-76 -539q-20 -132 -20 -174q0 -65 45 -65q30 0 53 11t36.5 25t45.5 52l96 -76l-67 -496h-213l112 389q-84 -76 -126.5 -98t-106.5 -22q-60 0 -95.5 56.5 t-35.5 121.5q-186 -178 -375 -178q-140 0 -211.5 81.5t-71.5 215.5z" />
<glyph unicode="&#x447;" horiz-adv-x="1144" d="M92 618q0 44 47 357h289q-41 -271 -41 -301q0 -50 35.5 -78.5t87.5 -28.5q63 0 128.5 29.5t109.5 75.5l43 303h290l-139 -975h-289l64 469q-151 -100 -309 -100q-38 0 -80 9.5t-84.5 29.5t-76 48.5t-54.5 70.5t-21 91z" />
<glyph unicode="&#x448;" horiz-adv-x="1773" d="M104 279q0 48 13 141l78 555h290l-73 -514q-13 -93 -13 -129q0 -135 90 -135q97 0 230 153l88 625h291l-74 -514q-12 -86 -12 -129q0 -68 22.5 -101.5t73.5 -33.5q40 0 99 39.5t124 113.5l88 625h291l-137 -975h-291l16 109q-73 -63 -156.5 -95t-148.5 -32q-93 0 -161 45 t-97 129q-101 -97 -179.5 -135.5t-168.5 -38.5q-141 0 -212 82.5t-71 214.5z" />
<glyph unicode="&#x449;" horiz-adv-x="1943" d="M104 279q0 48 13 141l78 555h290l-73 -514q-13 -93 -13 -129q0 -135 90 -135q97 0 230 153l88 625h291l-74 -514q-12 -86 -12 -129q0 -68 22.5 -101.5t73.5 -33.5q40 0 99 39.5t124 113.5l88 625h291l-70 -494q-26 -182 -26 -219q0 -65 45 -65q42 0 67.5 17.5t67.5 70.5 l96 -76l-67 -496h-213l112 389q-78 -72 -122 -96t-105 -24q-60 0 -98.5 53t-38.5 125q-77 -67 -191.5 -122.5t-173.5 -55.5q-93 0 -161 45t-97 129q-101 -97 -179.5 -135.5t-168.5 -38.5q-141 0 -212 82.5t-71 214.5z" />
<glyph unicode="&#x44a;" horiz-adv-x="1144" d="M-33 770l31 205h584l-52 -354q68 8 154 8q87 0 157 -20t114 -52.5t73 -76.5t41 -88t12 -91q0 -319 -624 -319q-41 0 -305 18l108 770h-293zM469 186h109q30 0 58 4t63.5 15t57 37.5t21.5 66.5q0 115 -157 115q-55 0 -117 -4z" />
<glyph unicode="&#x44b;" horiz-adv-x="1568" d="M63 0l138 975h293l-52 -354q58 8 146 8q91 0 163.5 -20.5t116.5 -53t73 -77t40.5 -88.5t11.5 -91q0 -317 -624 -317q-42 0 -306 18zM381 186h108q33 0 63.5 4.5t64 16.5t53.5 37.5t20 62.5q0 117 -166 117q-34 0 -108 -4zM1077 0l137 975h291l-137 -975h-291z" />
<glyph unicode="&#x44c;" horiz-adv-x="1056" d="M63 0l138 975h293l-52 -354q58 8 146 8q91 0 163.5 -20.5t116.5 -53t73 -77t40.5 -88.5t11.5 -91q0 -317 -624 -317q-42 0 -306 18zM381 186h108q33 0 63.5 4.5t64 16.5t53.5 37.5t20 62.5q0 117 -166 117q-34 0 -108 -4z" />
<glyph unicode="&#x44d;" horiz-adv-x="1028" d="M59 14l35 262q78 -29 112 -36t99 -7q104 0 186.5 45.5t126.5 122.5h-342l27 195h342q-17 77 -81 118.5t-165 41.5q-68 0 -124 -13t-154 -51l35 264q155 37 301 37q219 0 357 -132t138 -339q0 -151 -82 -275.5t-225 -195.5t-317 -71q-69 0 -146 10t-123 24z" />
<glyph unicode="&#x44e;" horiz-adv-x="1703" d="M63 0l138 975h291l-54 -371h166q53 171 202.5 280t340.5 109q212 0 346.5 -126.5t134.5 -334.5q0 -114 -42.5 -216t-116 -175t-176.5 -116t-220 -43q-199 0 -336.5 121.5t-152.5 306.5h-172l-58 -410h-291zM883 434q0 -102 59.5 -159.5t132.5 -57.5q60 0 110 31.5 t79.5 81t46 104.5t16.5 107q0 97 -53 157t-139 60q-68 0 -120 -36t-79 -90t-40 -105t-13 -93z" />
<glyph unicode="&#x44f;" horiz-adv-x="1105" d="M-39 0l172 246q57 81 121.5 140.5t114.5 74.5q-37 15 -56.5 24t-47 25t-41.5 31t-29 37t-21 50.5t-6 63.5q0 113 106 198t263 85h505l-139 -975h-289l54 385h-45q-53 0 -97.5 -40.5t-109.5 -139.5l-135 -205h-320zM449 672q0 -51 32.5 -77t87.5 -26h123l31 209h-125 q-65 0 -107 -28t-42 -78z" />
<glyph unicode="&#x451;" horiz-adv-x="1091" d="M76 455q0 147 70 271t191.5 195.5t266.5 71.5q193 0 305.5 -114t112.5 -299q0 -68 -14 -134h-637q-4 -12 -4 -32q0 -102 62.5 -159.5t162.5 -57.5q125 0 360 98l-51 -244q-186 -69 -340 -69q-222 0 -353.5 128.5t-131.5 344.5zM281 1241q0 58 41 98.5t100 40.5 q58 0 98.5 -40t40.5 -99t-40.5 -100t-98.5 -41t-99.5 41t-41.5 100zM395 614h342q4 20 4 37q0 63 -39.5 102.5t-103.5 39.5q-140 0 -203 -179zM715 1241q0 58 41 98.5t100 40.5q58 0 98.5 -40t40.5 -99t-40.5 -100t-98.5 -41t-99.5 41t-41.5 100z" />
<glyph unicode="&#x452;" d="M63 0l164 1155h-114l24 184h115l18 127h291l-18 -127h420l-27 -184h-420l-41 -287q154 125 326 125q272 0 272 -317q0 -43 -12 -117l-78 -559q-6 -44 -18.5 -78.5t-46.5 -74t-86.5 -65.5t-143.5 -43.5t-213 -17.5l25 191q49 11 80 23t59.5 32.5t44.5 53.5t23 81l59 428 q12 93 12 113q0 62 -24 98.5t-66 36.5q-106 0 -246 -149l-88 -629h-291z" />
<glyph unicode="&#x453;" horiz-adv-x="866" d="M49 262q0 59 16.5 105.5t48 79t58 51.5t66.5 42q11 6 16 9q31 18 105 52t108.5 60.5t34.5 59.5q0 17 -1.5 26t-8 21.5t-24.5 18.5t-46 6q-35 0 -74 -9.5t-61.5 -18t-74 -31t-67.5 -29.5l43 239q158 49 263 49q164 0 258 -71.5t94 -196.5q0 -50 -21 -93.5t-60 -79 t-76.5 -60.5t-88.5 -52q-18 -10 -62.5 -32.5t-60.5 -32t-40.5 -28t-33 -36t-8.5 -39.5q0 -59 127 -59q98 0 252 68l-35 -252q-142 -50 -286 -47q-166 3 -263.5 86t-97.5 194zM420 1051l153 295h277l-305 -295h-125z" />
<glyph unicode="&#x454;" horiz-adv-x="1007" d="M76 451q0 151 82 275.5t225 195.5t317 71q68 0 145.5 -10.5t123.5 -24.5l-35 -262q-78 29 -112 36t-99 7q-107 0 -192.5 -48.5t-124.5 -129.5h307l-21 -182h-307q19 -78 80.5 -120t161.5 -42q68 0 125 13t155 51l-35 -265q-143 -34 -301 -34q-219 0 -357 131t-138 338z " />
<glyph unicode="&#x455;" horiz-adv-x="827" d="M39 70l41 217q13 -4 49 -17.5t55.5 -20t50 -15.5t58 -13t53.5 -4q44 0 70 15t26 40q0 24 -24 52.5t-60.5 55.5t-79 61t-79 67.5t-60.5 78t-24 89.5q0 141 102 229t264 88q144 0 307 -88l-24 -231q-72 38 -155 61t-126 23q-29 0 -47 -12.5t-18 -32.5q0 -28 33.5 -61 t81 -67.5t95.5 -74.5t81.5 -98.5t33.5 -124.5q0 -134 -102.5 -219.5t-263.5 -85.5t-338 88z" />
<glyph unicode="&#x456;" horiz-adv-x="555" d="M63 0l138 975h291l-140 -975h-289zM227 1247q0 63 44.5 106.5t107.5 43.5t106 -43.5t43 -106.5t-43 -107t-106 -44t-107.5 44t-44.5 107z" />
<glyph unicode="&#x457;" horiz-adv-x="559" d="M8 1247q0 63 44.5 106.5t107.5 43.5t106 -43.5t43 -106.5t-43 -107t-106 -44t-107.5 44t-44.5 107zM63 0l138 975h291l-140 -975h-289zM410 1247q0 63 44 106.5t107 43.5t106.5 -43.5t43.5 -106.5t-43.5 -107t-106.5 -44t-107 44t-44 107z" />
<glyph unicode="&#x458;" horiz-adv-x="555" d="M-156 -483l35 233q90 0 127 46.5t51 156.5l144 1022h291l-154 -1081q-57 -390 -399 -390q-41 0 -95 13zM227 1245q0 63 43.5 107.5t106.5 44.5t107 -44.5t44 -107.5q0 -62 -44 -105.5t-107 -43.5t-106.5 43.5t-43.5 105.5z" />
<glyph unicode="&#x459;" horiz-adv-x="1687" d="M-18 209q24 -4 47 -4q68 0 105 28t48 105l92 637h850l-51 -354q58 8 146 8q91 0 163.5 -20.5t116.5 -53t73 -77t40.5 -88.5t11.5 -91q0 -317 -625 -317q-41 0 -305 18l111 780h-285l-59 -430q-26 -185 -123 -276.5t-250 -91.5q-55 0 -100 10zM1012 186h108q33 0 63.5 4.5 t64 16.5t53.5 37.5t20 62.5q0 117 -166 117q-34 0 -108 -4z" />
<glyph unicode="&#x45a;" horiz-adv-x="1714" d="M63 0l140 975h289l-48 -330h367l47 330h293l-51 -354q58 8 145 8q91 0 163.5 -20.5t117 -53t73.5 -77t40.5 -88.5t11.5 -91q0 -317 -625 -317q-41 0 -305 18l57 410h-364l-60 -410h-291zM1038 186h109q33 0 63.5 4.5t64 16.5t53.5 37.5t20 62.5q0 117 -166 117 q-35 0 -109 -4z" />
<glyph unicode="&#x45b;" d="M63 0l164 1155h-114l24 184h115l18 127h291l-18 -127h420l-27 -184h-420l-41 -287q157 125 326 125q139 0 205.5 -81t66.5 -220q0 -59 -14 -145l-76 -547h-291l74 530q12 87 12 113q0 59 -23 97t-67 38q-106 0 -246 -149l-88 -629h-291z" />
<glyph unicode="&#x45c;" horiz-adv-x="1136" d="M63 0l138 977h291l-52 -373h47q62 0 108.5 48t86.5 143q87 198 297 198q73 0 129 -35l-33 -217q-34 27 -71 27q-23 0 -40.5 -8t-34 -29t-26.5 -37.5t-29 -52.5q-22 -38 -56.5 -72.5t-63.5 -46.5q121 -48 178 -237q5 -16 20.5 -64t24 -72.5t24.5 -67t33 -81.5h-332 q-13 39 -31.5 99t-29 91t-26 73.5t-29 64t-31.5 43.5t-39.5 30.5t-48.5 8.5h-55l-58 -410h-291zM549 1053l153 295h277l-305 -295h-125z" />
<glyph unicode="&#x45e;" horiz-adv-x="1044" d="M63 975h291l191 -567l258 567h303l-709 -1469h-305l283 584zM322 1200l155 123q2 -61 38 -105t87 -44q50 0 97.5 44t68.5 105l119 -123q-30 -52 -115 -108t-190 -56q-56 0 -104.5 18t-79.5 45t-50 53t-26 48z" />
<glyph unicode="&#x45f;" d="M104 279q0 40 17 174l74 522h290l-71 -500q-15 -107 -15 -143q0 -135 90 -135q112 0 246 143l88 635h291l-137 -975h-291l16 109q-72 -60 -154.5 -93.5t-160.5 -33.5q-140 0 -211.5 82t-71.5 215zM215 -381l305 295h125l-153 -295h-277z" />
<glyph unicode="&#x490;" horiz-adv-x="1290" d="M98 0l205 1466h690l23 148h254l-45 -393h-641l-174 -1221h-312z" />
<glyph unicode="&#x491;" horiz-adv-x="946" d="M63 0l140 975h454l23 145h240l-60 -381h-403l-103 -739h-291z" />
<glyph unicode="&#x2000;" horiz-adv-x="986" />
<glyph unicode="&#x2001;" horiz-adv-x="1972" />
<glyph unicode="&#x2002;" horiz-adv-x="986" />
<glyph unicode="&#x2003;" horiz-adv-x="1972" />
<glyph unicode="&#x2004;" horiz-adv-x="657" />
<glyph unicode="&#x2005;" horiz-adv-x="493" />
<glyph unicode="&#x2006;" horiz-adv-x="328" />
<glyph unicode="&#x2007;" horiz-adv-x="328" />
<glyph unicode="&#x2008;" horiz-adv-x="246" />
<glyph unicode="&#x2009;" horiz-adv-x="394" />
<glyph unicode="&#x200a;" horiz-adv-x="109" />
<glyph unicode="&#x2010;" horiz-adv-x="741" d="M41 502l39 256h665l-34 -256h-670z" />
<glyph unicode="&#x2011;" horiz-adv-x="741" d="M41 502l39 256h665l-34 -256h-670z" />
<glyph unicode="&#x2012;" horiz-adv-x="741" d="M41 502l39 256h665l-34 -256h-670z" />
<glyph unicode="&#x2013;" horiz-adv-x="1097" d="M14 514l37 256h1102l-37 -256h-1102z" />
<glyph unicode="&#x2014;" horiz-adv-x="2166" d="M2 514l37 256h2175l-37 -256h-2175z" />
<glyph unicode="&#x2018;" horiz-adv-x="559" d="M143 1090q0 74 35 144t97.5 126.5t159 90.5t210.5 34l-33 -131q-135 -29 -184 -154q102 -58 102 -164q0 -72 -52 -122t-128 -50q-86 0 -146.5 66t-60.5 160z" />
<glyph unicode="&#x2019;" horiz-adv-x="559" d="M102 864l33 131q137 30 184 154q-102 59 -102 164q0 72 52 122t128 50q86 0 146.5 -65.5t60.5 -159.5q0 -73 -34.5 -143.5t-97 -127t-159 -91t-211.5 -34.5z" />
<glyph unicode="&#x201a;" horiz-adv-x="559" d="M-96 -311l33 131q139 30 184 153q-103 59 -103 164q0 72 52.5 122t128.5 50q86 0 146.5 -65.5t60.5 -159.5q0 -74 -34.5 -144t-97 -126.5t-159 -90.5t-211.5 -34z" />
<glyph unicode="&#x201c;" horiz-adv-x="1073" d="M115 1090q0 74 34.5 144t96.5 126.5t158 90.5t210 34l-30 -131q-138 -29 -187 -154q105 -58 105 -164q0 -72 -52 -122t-128 -50q-86 0 -146.5 66t-60.5 160zM670 1090q0 74 34.5 144t96.5 126.5t158 90.5t210 34l-30 -131q-138 -29 -187 -154q105 -58 105 -164 q0 -72 -52.5 -122t-130.5 -50q-85 0 -144.5 66t-59.5 160z" />
<glyph unicode="&#x201d;" horiz-adv-x="1052" d="M82 864l33 131q134 29 184 154q-104 58 -104 164q0 72 52 122t130 50q85 0 145 -65.5t60 -159.5q0 -73 -34.5 -143.5t-96.5 -127t-158.5 -91t-210.5 -34.5zM635 864l31 131q136 30 186 154q-104 58 -104 164q0 72 52 122t128 50q86 0 146.5 -65.5t60.5 -159.5 q0 -73 -34.5 -143.5t-96.5 -127t-158.5 -91t-210.5 -34.5z" />
<glyph unicode="&#x201e;" horiz-adv-x="1052" d="M-88 -311l31 131q138 30 186 153q-104 58 -104 164q0 72 52 122t128 50q86 0 146.5 -65.5t60.5 -159.5q0 -74 -34.5 -144t-96.5 -126.5t-158.5 -90.5t-210.5 -34zM399 -311l33 131q135 29 184 153q-104 58 -104 164q0 72 52 122t130 50q85 0 145 -65.5t60 -159.5 q0 -74 -34.5 -144t-96.5 -126.5t-158.5 -90.5t-210.5 -34z" />
<glyph unicode="&#x2022;" horiz-adv-x="759" d="M94 733q0 129 90 219t219 90t219.5 -90t90.5 -219t-90.5 -219t-219.5 -90t-219 90t-90 219z" />
<glyph unicode="&#x2026;" horiz-adv-x="2148" d="M106 168q0 76 55 131t132 55q78 0 133 -54.5t55 -131.5t-55 -131.5t-133 -54.5q-77 0 -132 55t-55 131zM823 168q0 76 55 131t132 55q76 0 131 -55t55 -131t-55 -131t-131 -55q-77 0 -132 55t-55 131zM1538 168q0 77 55 131.5t133 54.5q77 0 132 -55t55 -131t-55 -131 t-132 -55q-78 0 -133 54.5t-55 131.5z" />
<glyph unicode="&#x202f;" horiz-adv-x="394" />
<glyph unicode="&#x2039;" horiz-adv-x="583" d="M33 547l323 444h285l-352 -495l143 -496h-242z" />
<glyph unicode="&#x203a;" horiz-adv-x="583" d="M-45 0l352 494l-143 497h242l157 -549l-323 -442h-285z" />
<glyph unicode="&#x205f;" horiz-adv-x="493" />
<glyph unicode="&#x20ac;" horiz-adv-x="1142" d="M27 481l92 191h80q0 22 6 63q2 8 5 27.5t5 28.5h-143l90 190h96q156 504 612 504q105 0 186.5 -23.5t117.5 -52.5l-39 -272q-31 40 -96 66t-160 26q-248 0 -324 -248h492l-91 -190h-450q-2 -8 -5 -27t-5 -27q-1 -11 -4 -33.5t-3 -31.5h408l-92 -191h-318q6 -241 254 -241 q90 0 163 25t118 63l-39 -275q-41 -27 -125.5 -48t-198.5 -21q-460 0 -469 497h-163z" />
<glyph unicode="&#x2122;" horiz-adv-x="2150" d="M268 1389l23 151h696l-22 -151h-258l-101 -709h-174l100 709h-264zM967 680l123 860h274l70 -594h4l239 594h273l-123 -860h-166l98 686h-4l-280 -686h-158l-82 686h-4l-98 -686h-166z" />
<glyph unicode="&#xe000;" horiz-adv-x="972" d="M0 0v973h973v-973h-973z" />
</font>
</defs>
</svg>
